<svg xmlns="http://www.w3.org/2000/svg" version="1.1" xmlns:xlink="http://www.w3.org/1999/xlink" xmlns:svgjs="http://svgjs.com/svgjs" width="1440" height="560" preserveAspectRatio="none" viewBox="0 0 1440 560"><g mask="url(&quot;#SvgjsMask1026&quot;)" fill="none"><rect width="1440" height="560" x="0" y="0" fill="url(#SvgjsLinearGradient1027)"></rect><path d="M 0,262 C 57.6,225.8 172.8,92.4 288,81 C 403.2,69.6 460.8,195.2 576,205 C 691.2,214.8 748.8,123.6 864,130 C 979.2,136.4 1036.8,258.4 1152,237 C 1267.2,215.6 1382.4,65.8 1440,23L1440 560L0 560z" fill="rgba(133, 2, 128, 1)"></path><path d="M 0,482 C 96,455.6 288,354.2 480,350 C 672,345.8 768,475 960,461 C 1152,447 1344,316.2 1440,280L1440 560L0 560z" fill="rgba(174, 4, 214, 1)"></path></g><defs><mask id="SvgjsMask1026"><rect width="1440" height="560" fill="#ffffff"></rect></mask><linearGradient x1="15.28%" y1="-39.29%" x2="84.72%" y2="139.29%" gradientUnits="userSpaceOnUse" id="SvgjsLinearGradient1027"><stop stop-color="rgba(14, 42, 71, 1)" offset="0"></stop><stop stop-color="rgba(208, 9, 216, 1)" offset="0"></stop><stop stop-color="rgba(208, 9, 216, 1)" offset="1"></stop></linearGradient></defs></svg>